<svg width="96" height="96" viewBox="0 0 24 24"
     fill="none"
     stroke="currentColor"
     stroke-width="1.8"
     stroke-linecap="round"
     stroke-linejoin="round">

  <!-- Corazón -->
  <path d="M12 21
           C12 21 5 14.5 5 9
           C5 6.5 7 5 9 6.5
           C10.5 7.5 12 9.5 12 9.5
           C12 9.5 13.5 7.5 15 6.5
           C17 5 19 6.5 19 9
           C19 14.5 12 21 12 21"/>

  <!-- Grieta -->
  <path d="M12 9.5
           L11 12.5
           L13 14.5
           L11.5 18"/>

  <!-- Estetoscopio (BAJADO) -->
  <!-- Tubos -->
  <path d="M8 8v2.5c0 2.5 2.5 4 4 4"/>
  <path d="M16 8v2.5c0 2.5-2.5 4-4 4"/>

  <!-- Conector -->
  <path d="M12 14v2"/>

  <!-- Campana -->
  <circle cx="12" cy="17" r="1.8"/>

</svg>

